# xmcd
#
# Track frame offsets:
#	150
#	26899
#	47389
#	57788
#	63193
#	68605
#
# Disc length: 1002 seconds
#
# Revision: 0
# Processed by: cddbd v1.5.1PL2 Copyright (c) Steve Scherf et al.
# Submitted via: dBpowerAMP V4.0
#
DISCID=4603e806
DTITLE=Fo Mob - GI Streets
DYEAR=1999
DGENRE=Gangsta
TTITLE0=G.i. Streets featuring Mc Breed
TTITLE1=Relax and Unwind featuring Alonzo Hunter(radio verison)
TTITLE2=Till The World Blows Up-Snippet
TTITLE3=How Ya Bouncing-Snippet
TTITLE4=Let Em Know-Snippet
TTITLE5=What Ya Smokin On-Snippet
EXTD=
EXTT0=
EXTT1=
EXTT2=
EXTT3=
EXTT4=
EXTT5=
PLAYORDER=
